<?xml version="1.0" standalone="no"?>
<!DOCTYPE svg PUBLIC "-//W3C//DTD SVG 20010904//EN"
 "http://www.w3.org/TR/2001/REC-SVG-20010904/DTD/svg10.dtd">
<svg version="1.0" xmlns="http://www.w3.org/2000/svg"
 width="261.000000pt" height="261.000000pt" viewBox="0 0 261.000000 261.000000"
 preserveAspectRatio="xMidYMid meet">
<metadata>
Created by potrace 1.11, written by Peter Selinger 2001-2013
</metadata>
<g transform="translate(0.000000,261.000000) scale(0.100000,-0.100000)"
fill="#000000" stroke="none">
<path d="M444 2596 c-104 -20 -227 -86 -303 -164 -36 -37 -77 -89 -90 -115
-52 -107 -51 -90 -51 -1007 1 -533 4 -872 11 -899 48 -211 256 -371 516 -397
l58 -5 0 1298 -1 1298 -39 1 c-22 1 -67 -4 -101 -10z"/>
<path d="M874 2600 c-35 -14 -82 -77 -99 -132 -12 -41 -15 -107 -15 -313 l0
-260 176 0 c206 1 226 -5 254 -67 37 -81 19 -177 -42 -221 -24 -18 -44 -20
-207 -20 l-182 0 3 -474 3 -475 28 -24 c16 -13 34 -21 43 -17 12 4 10 -5 -9
-44 -33 -64 -57 -156 -63 -244 -10 -128 38 -223 137 -273 l52 -25 708 -1 c390
0 727 3 750 6 58 10 129 60 158 113 28 51 35 130 18 188 -16 53 -92 128 -142
142 -26 7 -200 11 -507 11 -258 0 -468 2 -468 5 0 5 314 484 375 572 l36 53
262 0 c159 0 278 4 302 11 50 14 126 90 142 143 35 114 -19 239 -126 288 -36
16 -64 20 -157 19 -63 0 -114 2 -114 5 0 3 92 145 206 316 l205 310 -6 50
c-25 197 -175 350 -358 365 l-65 5 -179 -271 c-244 -372 -641 -974 -862 -1311
-102 -154 -186 -279 -187 -277 -1 1 25 58 58 127 97 199 237 488 348 715 56
116 142 291 190 390 48 99 135 278 194 398 58 119 106 219 106 222 0 9 -944 4
-966 -5z"/>
</g>
</svg>
